<svg width="50" height="50" viewBox="0 0 50 50" fill="none" xmlns="http://www.w3.org/2000/svg">
<rect width="50" height="50" rx="12" fill="#7C5CFC"/>
<path d="M18 28C17.06 28 16.19 28.33 15.5 28.88C14.58 29.61 14 30.74 14 32C14 34.21 15.79 36 18 36C19.01 36 19.93 35.62 20.64 35C21.47 34.27 22 33.2 22 32C22 29.79 20.21 28 18 28ZM19 32.25C19 32.51 18.86 32.76 18.64 32.89L17.39 33.64C17.27 33.72 17.13 33.75 17 33.75C16.75 33.75 16.5 33.62 16.36 33.39C16.15 33.03 16.26 32.57 16.62 32.36L17.51 31.83V30.75C17.5 30.34 17.84 30 18.25 30C18.66 30 19 30.34 19 30.75V32.25Z" fill="white"/>
<path d="M27.85 16.95V20.75H26.35V16.95C26.35 16.68 26.11 16.55 25.95 16.55C25.9 16.55 25.85 16.56 25.8 16.58L17.87 19.57C17.34 19.77 17 20.27 17 20.84V21.51C16.09 22.19 15.5 23.28 15.5 24.51V20.84C15.5 19.65 16.23 18.59 17.34 18.17L25.28 15.17C25.5 15.09 25.73 15.05 25.95 15.05C26.95 15.05 27.85 15.86 27.85 16.95Z" fill="white"/>
<path d="M34.4999 27.5V28.5C34.4999 28.77 34.2899 28.99 34.0099 29H32.5499C32.0199 29 31.5399 28.61 31.4999 28.09C31.4699 27.78 31.5899 27.49 31.7899 27.29C31.9699 27.1 32.2199 27 32.4899 27H33.9999C34.2899 27.01 34.4999 27.23 34.4999 27.5Z" fill="white"/>
<path d="M32.48 25.95H33.5C34.05 25.95 34.5 25.5 34.5 24.95V24.51C34.5 22.44 32.81 20.75 30.74 20.75H19.26C18.41 20.75 17.63 21.03 17 21.51C16.09 22.19 15.5 23.28 15.5 24.51V26.29C15.5 26.67 15.9 26.91 16.26 26.79C16.82 26.6 17.41 26.5 18 26.5C21.03 26.5 23.5 28.97 23.5 32C23.5 32.72 23.31 33.51 23.01 34.21C22.85 34.57 23.1 35 23.49 35H30.74C32.81 35 34.5 33.31 34.5 31.24V31.05C34.5 30.5 34.05 30.05 33.5 30.05H32.63C31.67 30.05 30.75 29.46 30.5 28.53C30.3 27.77 30.54 27.03 31.04 26.55C31.41 26.17 31.92 25.95 32.48 25.95ZM27 25.75H22C21.59 25.75 21.25 25.41 21.25 25C21.25 24.59 21.59 24.25 22 24.25H27C27.41 24.25 27.75 24.59 27.75 25C27.75 25.41 27.41 25.75 27 25.75Z" fill="white"/>
</svg>
