<svg width="50" height="50" viewBox="0 0 50 50" fill="none" xmlns="http://www.w3.org/2000/svg">
<rect width="50" height="50" rx="12" fill="#7C5CFC"/>
<path d="M29 15H21C17.5 15 16 17 16 20V30C16 33 17.5 35 21 35H29C32.5 35 34 33 34 30V20C34 17 32.5 15 29 15ZM21 25.25H25C25.41 25.25 25.75 25.59 25.75 26C25.75 26.41 25.41 26.75 25 26.75H21C20.59 26.75 20.25 26.41 20.25 26C20.25 25.59 20.59 25.25 21 25.25ZM29 30.75H21C20.59 30.75 20.25 30.41 20.25 30C20.25 29.59 20.59 29.25 21 29.25H29C29.41 29.25 29.75 29.59 29.75 30C29.75 30.41 29.41 30.75 29 30.75ZM31.5 22.25H29.5C27.98 22.25 26.75 21.02 26.75 19.5V17.5C26.75 17.09 27.09 16.75 27.5 16.75C27.91 16.75 28.25 17.09 28.25 17.5V19.5C28.25 20.19 28.81 20.75 29.5 20.75H31.5C31.91 20.75 32.25 21.09 32.25 21.5C32.25 21.91 31.91 22.25 31.5 22.25Z" fill="white"/>
</svg>
