<svg width="138" height="28" viewBox="0 0 138 28" fill="none" xmlns="http://www.w3.org/2000/svg">
<path d="M13.5386 21.4366C13.3904 21.5849 13.2144 21.7025 13.0208 21.7828C12.8271 21.863 12.6195 21.9043 12.4099 21.9043C12.2003 21.9043 11.9927 21.863 11.799 21.7828C11.6053 21.7025 11.4294 21.5849 11.2812 21.4366L2.09921 12.2561C0.774913 10.9048 0.0374108 9.08544 0.0469667 7.19342C0.0565226 5.30139 0.812364 3.48959 2.15024 2.15171C3.48812 0.813829 5.29993 0.0579875 7.19195 0.0484316C9.08398 0.0388756 10.9033 0.776377 12.2547 2.10067L18.0578 7.90378C18.3563 8.2039 18.5235 8.61034 18.5224 9.03369C18.5213 9.45704 18.3521 9.86261 18.052 10.1612C17.7518 10.4598 17.3454 10.6269 16.9221 10.6258C16.4987 10.6247 16.0931 10.4555 15.7945 10.1554L9.99869 4.35228C9.24993 3.60352 8.23439 3.18287 7.17548 3.18287C6.11657 3.18287 5.10103 3.60352 4.35227 4.35228C3.6035 5.10104 3.18285 6.11658 3.18285 7.17549C3.18285 8.2344 3.6035 9.24994 4.35227 9.99871L13.5342 19.1807C13.8338 19.4793 14.0026 19.8847 14.0034 20.3078C14.0042 20.7308 13.837 21.1368 13.5386 21.4366Z" fill="#E7DEFE"/>
<path d="M18.0012 25.8992C16.6533 27.2436 14.8272 27.9987 12.9234 27.9987C11.0197 27.9987 9.19358 27.2436 7.84571 25.8992L2.04986 20.0961C1.88902 19.951 1.75941 19.7747 1.66891 19.5779C1.57841 19.3811 1.52892 19.1679 1.52346 18.9514C1.51799 18.7348 1.55667 18.5194 1.63713 18.3183C1.71758 18.1172 1.83814 17.9346 1.99145 17.7816C2.14477 17.6286 2.32762 17.5084 2.52889 17.4283C2.73015 17.3482 2.94561 17.31 3.16214 17.3158C3.37867 17.3217 3.59173 17.3716 3.78835 17.4625C3.98497 17.5534 4.16104 17.6833 4.30582 17.8445L10.1017 23.6476C10.8516 24.3875 11.8637 24.8008 12.9172 24.7972C13.9707 24.7937 14.98 24.3737 15.7249 23.6287C16.4698 22.8838 16.8899 21.8745 16.8934 20.821C16.8969 19.7675 16.4837 18.7554 15.7437 18.0055L6.56177 8.81917C6.26242 8.51982 6.09425 8.11381 6.09425 7.69047C6.09425 7.26712 6.26242 6.86111 6.56177 6.56176C6.86113 6.26241 7.26713 6.09424 7.69048 6.09424C8.11382 6.09424 8.51983 6.26241 8.81918 6.56176L18.0012 15.7437C19.346 17.0914 20.1013 18.9176 20.1013 20.8215C20.1013 22.7253 19.346 24.5515 18.0012 25.8992Z" fill="#E7DEFE"/>
<path d="M47.416 22.336C46.12 22.336 44.976 22.104 43.984 21.64C42.992 21.176 42.216 20.512 41.656 19.648C41.096 18.784 40.816 17.744 40.816 16.528V15.856H43.936V16.528C43.936 17.536 44.248 18.296 44.872 18.808C45.496 19.304 46.344 19.552 47.416 19.552C48.504 19.552 49.312 19.336 49.84 18.904C50.384 18.472 50.656 17.92 50.656 17.248C50.656 16.784 50.52 16.408 50.248 16.12C49.992 15.832 49.608 15.6 49.096 15.424C48.6 15.232 47.992 15.056 47.272 14.896L46.72 14.776C45.568 14.52 44.576 14.2 43.744 13.816C42.928 13.416 42.296 12.896 41.848 12.256C41.416 11.616 41.2 10.784 41.2 9.76C41.2 8.736 41.44 7.864 41.92 7.144C42.416 6.408 43.104 5.848 43.984 5.464C44.88 5.064 45.928 4.864 47.128 4.864C48.328 4.864 49.392 5.072 50.32 5.488C51.264 5.888 52 6.496 52.528 7.312C53.072 8.112 53.344 9.12 53.344 10.336V11.056H50.224V10.336C50.224 9.696 50.096 9.184 49.84 8.8C49.6 8.4 49.248 8.112 48.784 7.936C48.32 7.744 47.768 7.648 47.128 7.648C46.168 7.648 45.456 7.832 44.992 8.2C44.544 8.552 44.32 9.04 44.32 9.664C44.32 10.08 44.424 10.432 44.632 10.72C44.856 11.008 45.184 11.248 45.616 11.44C46.048 11.632 46.6 11.8 47.272 11.944L47.824 12.064C49.024 12.32 50.064 12.648 50.944 13.048C51.84 13.448 52.536 13.976 53.032 14.632C53.528 15.288 53.776 16.128 53.776 17.152C53.776 18.176 53.512 19.08 52.984 19.864C52.472 20.632 51.736 21.24 50.776 21.688C49.832 22.12 48.712 22.336 47.416 22.336ZM55.5147 26.8V10.096H58.4907V11.536H58.9227C59.1947 11.072 59.6187 10.664 60.1947 10.312C60.7707 9.944 61.5947 9.76 62.6667 9.76C63.6267 9.76 64.5147 10 65.3307 10.48C66.1467 10.944 66.8027 11.632 67.2987 12.544C67.7947 13.456 68.0427 14.56 68.0427 15.856V16.24C68.0427 17.536 67.7947 18.64 67.2987 19.552C66.8027 20.464 66.1467 21.16 65.3307 21.64C64.5147 22.104 63.6267 22.336 62.6667 22.336C61.9467 22.336 61.3387 22.248 60.8427 22.072C60.3627 21.912 59.9707 21.704 59.6667 21.448C59.3787 21.176 59.1467 20.904 58.9707 20.632H58.5387V26.8H55.5147ZM61.7547 19.696C62.6987 19.696 63.4747 19.4 64.0827 18.808C64.7067 18.2 65.0187 17.32 65.0187 16.168V15.928C65.0187 14.776 64.7067 13.904 64.0827 13.312C63.4587 12.704 62.6827 12.4 61.7547 12.4C60.8267 12.4 60.0507 12.704 59.4267 13.312C58.8027 13.904 58.4907 14.776 58.4907 15.928V16.168C58.4907 17.32 58.8027 18.2 59.4267 18.808C60.0507 19.4 60.8267 19.696 61.7547 19.696ZM75.5234 22.336C74.3394 22.336 73.2914 22.088 72.3794 21.592C71.4834 21.08 70.7794 20.368 70.2674 19.456C69.7714 18.528 69.5234 17.44 69.5234 16.192V15.904C69.5234 14.656 69.7714 13.576 70.2674 12.664C70.7634 11.736 71.4594 11.024 72.3554 10.528C73.2514 10.016 74.2914 9.76 75.4754 9.76C76.6434 9.76 77.6594 10.024 78.5234 10.552C79.3874 11.064 80.0594 11.784 80.5394 12.712C81.0194 13.624 81.2594 14.688 81.2594 15.904V16.936H72.5954C72.6274 17.752 72.9314 18.416 73.5074 18.928C74.0834 19.44 74.7874 19.696 75.6194 19.696C76.4674 19.696 77.0914 19.512 77.4914 19.144C77.8914 18.776 78.1954 18.368 78.4034 17.92L80.8754 19.216C80.6514 19.632 80.3234 20.088 79.8914 20.584C79.4754 21.064 78.9154 21.48 78.2114 21.832C77.5074 22.168 76.6114 22.336 75.5234 22.336ZM72.6194 14.68H78.1874C78.1234 13.992 77.8434 13.44 77.3474 13.024C76.8674 12.608 76.2354 12.4 75.4514 12.4C74.6354 12.4 73.9874 12.608 73.5074 13.024C73.0274 13.44 72.7314 13.992 72.6194 14.68ZM83.2309 22V10.096H86.2069V11.656H86.6389C86.8309 11.24 87.1909 10.848 87.7189 10.48C88.2469 10.096 89.0469 9.904 90.1189 9.904C91.0469 9.904 91.8549 10.12 92.5429 10.552C93.2469 10.968 93.7909 11.552 94.1749 12.304C94.5589 13.04 94.7509 13.904 94.7509 14.896V22H91.7269V15.136C91.7269 14.24 91.5029 13.568 91.0549 13.12C90.6229 12.672 89.9989 12.448 89.1829 12.448C88.2549 12.448 87.5349 12.76 87.0229 13.384C86.5109 13.992 86.2549 14.848 86.2549 15.952V22H83.2309ZM102.1 22.336C101.156 22.336 100.268 22.104 99.436 21.64C98.62 21.16 97.964 20.464 97.468 19.552C96.972 18.64 96.724 17.536 96.724 16.24V15.856C96.724 14.56 96.972 13.456 97.468 12.544C97.964 11.632 98.62 10.944 99.436 10.48C100.252 10 101.14 9.76 102.1 9.76C102.82 9.76 103.42 9.848 103.9 10.024C104.396 10.184 104.796 10.392 105.1 10.648C105.404 10.904 105.636 11.176 105.796 11.464H106.228V5.2H109.252V22H106.276V20.56H105.844C105.572 21.008 105.148 21.416 104.572 21.784C104.012 22.152 103.188 22.336 102.1 22.336ZM103.012 19.696C103.94 19.696 104.716 19.4 105.34 18.808C105.964 18.2 106.276 17.32 106.276 16.168V15.928C106.276 14.776 105.964 13.904 105.34 13.312C104.732 12.704 103.956 12.4 103.012 12.4C102.084 12.4 101.308 12.704 100.684 13.312C100.06 13.904 99.748 14.776 99.748 15.928V16.168C99.748 17.32 100.06 18.2 100.684 18.808C101.308 19.4 102.084 19.696 103.012 19.696ZM113.805 22.336C113.149 22.336 112.597 22.128 112.149 21.712C111.717 21.28 111.501 20.728 111.501 20.056C111.501 19.384 111.717 18.84 112.149 18.424C112.597 17.992 113.149 17.776 113.805 17.776C114.445 17.776 114.981 17.992 115.413 18.424C115.845 18.84 116.061 19.384 116.061 20.056C116.061 20.728 115.845 21.28 115.413 21.712C114.981 22.128 114.445 22.336 113.805 22.336ZM118.217 22V5.2H121.385V22H118.217ZM123.921 22V10.096H126.897V11.656H127.329C127.521 11.24 127.881 10.848 128.409 10.48C128.937 10.096 129.737 9.904 130.809 9.904C131.737 9.904 132.545 10.12 133.233 10.552C133.937 10.968 134.481 11.552 134.865 12.304C135.249 13.04 135.441 13.904 135.441 14.896V22H132.417V15.136C132.417 14.24 132.193 13.568 131.745 13.12C131.313 12.672 130.689 12.448 129.873 12.448C128.945 12.448 128.225 12.76 127.713 13.384C127.201 13.992 126.945 14.848 126.945 15.952V22H123.921Z" fill="#E7DEFE"/>
</svg>
