<svg width="32" height="32" viewBox="0 0 32 32" fill="none" xmlns="http://www.w3.org/2000/svg">
<path d="M25.0666 13.2134C23.56 13.2134 22.2133 13.9467 21.3733 15.0667C20.5333 13.9467 19.1867 13.2134 17.68 13.2134C15.1333 13.2134 13.0667 15.2934 13.0667 17.8534C13.0667 18.84 13.2266 19.76 13.4933 20.6C14.8 24.7467 18.8533 27.24 20.8533 27.92C21.1333 28.0134 21.6 28.0134 21.88 27.92C23.88 27.24 27.9333 24.76 29.24 20.6C29.52 19.7467 29.6667 18.84 29.6667 17.8534C29.68 15.2934 27.6133 13.2134 25.0666 13.2134Z" fill="#7C5CFC"/>
<path d="M27.6667 11.12C27.6667 11.4266 27.3601 11.6266 27.0667 11.5466C25.2667 11.08 23.2934 11.4666 21.8001 12.5333C21.5067 12.7466 21.1067 12.7466 20.8267 12.5333C19.7734 11.76 18.4934 11.3333 17.1467 11.3333C13.7067 11.3333 10.9067 14.1466 10.9067 17.6133C10.9067 21.3733 12.7067 24.1866 14.5201 26.0666C14.6134 26.16 14.5334 26.32 14.4134 26.2666C10.7734 25.0266 2.66675 19.88 2.66675 11.12C2.66675 7.2533 5.77341 4.1333 9.61341 4.1333C11.8934 4.1333 13.9067 5.22663 15.1734 6.91997C16.4534 5.22663 18.4667 4.1333 20.7334 4.1333C24.5601 4.1333 27.6667 7.2533 27.6667 11.12Z" fill="#7C5CFC"/>
</svg>
